<svg xmlns="http://www.w3.org/2000/svg" width="1512" height="85" viewBox="0 0 1512 85" fill="none"><path d="M269.48 30.1806C271.992 27.6579 274.902 25.7152 278.188 24.3331C281.484 22.9509 285.031 22.2647 288.849 22.2647C292.667 22.2647 296.262 22.9606 299.877 24.3911C303.492 25.8215 306.681 27.8222 309.436 30.4222L314.916 23.9658C311.504 20.9599 307.503 18.5822 302.912 16.8328C298.321 15.0834 293.624 14.2231 288.839 14.2231C283.639 14.2231 278.787 15.122 274.283 16.8908C269.77 18.6789 265.845 21.1918 262.52 24.3911C259.186 27.5903 256.567 31.3308 254.663 35.6028C252.749 39.8652 251.792 44.4756 251.792 49.4339C251.792 54.3922 252.73 59.0026 254.605 63.265C256.47 67.5274 259.07 71.2775 262.404 74.5251C265.739 77.7726 269.605 80.3146 274.042 82.1413C278.468 83.9584 283.195 84.8863 288.24 84.8863C291.487 84.8863 294.677 84.4997 297.809 83.7265C300.94 82.9629 303.946 81.8804 306.826 80.4982C309.707 79.1161 312.287 77.531 314.559 75.7429V49.9075H306.275V71.1132C304.188 72.4954 301.926 73.6745 299.452 74.6411C295.876 76.0232 292.386 76.7094 288.965 76.7094C285.147 76.7094 281.571 76.0232 278.246 74.6411C274.911 73.2686 271.983 71.3162 269.47 68.7935C266.947 66.2709 265.004 63.3713 263.622 60.0754C262.24 56.7892 261.554 53.2324 261.554 49.4146C261.554 45.5968 262.24 42.1656 263.622 38.8697C265.004 35.5835 266.957 32.6742 269.47 30.1516" fill="white"></path><path d="M332.797 14.5425H323.267V83.9491H366.529V75.1054H332.797V14.5425Z" fill="white"></path><path d="M243.142 15.335L227.803 58.365L211.526 15.335H201.861L218.814 59.7084H218.833L223.192 71.3068L218.524 84.4227H228.102L252.71 15.335H243.142Z" fill="white"></path><path d="M187.808 16.2436V14.5425H176.692L162.04 29.1178V14.5425H152.423V83.9491H162.04V39.9333L199.909 83.9491H211.062V82.306L169.521 34.1148L187.808 16.2436Z" fill="white"></path><path d="M521.387 14.639C520.671 14.5617 519.918 14.5327 519.125 14.5327C515.636 14.5327 512.495 15.2479 509.798 16.6687C507.101 18.0799 504.598 20.4672 502.356 23.7438C500.142 26.9913 497.881 31.4374 495.648 36.9563L486.379 59.3508C483.982 65.237 481.537 69.4027 479.111 71.7321C476.723 74.0228 473.64 75.1826 469.929 75.1826C468.527 75.1826 467.445 75.0859 466.7 74.9023L466.024 74.7283V83.8427L466.43 83.949C467.783 84.2873 469.416 84.4613 471.291 84.4613C475.177 84.4613 478.608 83.7267 481.498 82.2866C484.388 80.8368 487.046 78.4205 489.385 75.1149C491.705 71.8384 494.015 67.3344 496.257 61.7381L505.429 39.2566C507.759 33.6314 510.107 29.5913 512.408 27.2523C514.66 24.9616 517.385 23.8018 520.507 23.8018C521.319 23.8018 522.121 23.8597 522.875 23.9951L523.513 24.1014V15.0643L523.146 14.9387C522.701 14.784 522.141 14.6777 521.396 14.6197" fill="white"></path><path d="M1327.54 0.624699H480.647L441.02 0.595703H131.536C123.591 0.595703 117.154 2.43211 112.418 6.09527C107.605 9.78742 105.169 14.8714 105.169 21.1828C105.169 25.1939 106.184 28.8184 108.194 31.979C110.185 35.1009 113.307 38.1068 117.473 40.9098L123.852 45.1625C128.627 48.3231 132.029 51.2323 133.962 53.813C135.847 56.3259 136.804 59.2062 136.804 62.3861C136.804 66.7258 135.199 70.1183 132.019 72.4864C128.791 74.9027 124.229 76.1495 118.556 76.1592H-404V84.974H118.797C127.39 84.974 134.233 82.9442 139.123 78.9331C144.082 74.8834 146.585 69.3161 146.585 62.3861C146.585 57.5824 145.299 53.2427 142.777 49.5022C140.283 45.8101 136.069 41.9536 130.251 38.0392L123.891 33.9217C120.614 31.7084 118.266 29.6303 116.912 27.7166C115.617 25.8609 114.95 23.6185 114.95 21.0669C114.95 17.4424 116.391 14.5814 119.242 12.5614C122.19 10.464 126.288 9.40081 131.43 9.40081H433.403C445.466 9.69077 467.725 9.58445 487.365 9.47813C493.048 9.46847 498.596 9.42981 503.719 9.40081H1526V0.624699H1327.53H1327.54Z" fill="white"></path><path d="M420.239 62.5599C417.939 66.542 414.759 69.7219 410.777 72.0222C406.795 74.3225 402.32 75.4824 397.468 75.4824C392.616 75.4824 388.141 74.3225 384.158 72.0222C380.176 69.7219 377.006 66.542 374.744 62.5599C372.473 58.5777 371.333 54.093 371.333 49.2507C371.333 44.4084 372.483 39.827 374.744 35.8352C377.006 31.8628 380.176 28.6926 384.158 26.4309C388.141 24.1692 392.625 23.0094 397.468 23.0094C402.31 23.0094 406.795 24.1595 410.786 26.4309C414.759 28.6926 417.948 31.8628 420.239 35.8449C422.53 39.827 423.699 44.3407 423.699 49.2507C423.699 54.1607 422.53 58.5777 420.239 62.5599ZM428.706 31.3699C425.574 26.0153 421.215 21.7432 415.716 18.6793C410.226 15.6251 404.088 14.0786 397.468 14.0786C390.847 14.0786 384.719 15.6251 379.268 18.6793C373.807 21.7335 369.438 26.0153 366.278 31.3699C363.117 36.7245 361.513 42.746 361.513 49.2507C361.513 55.7555 363.117 61.777 366.278 67.1315C369.438 72.4958 373.797 76.7679 379.268 79.8221C384.719 82.886 390.847 84.4325 397.468 84.4325C404.088 84.4325 410.226 82.886 415.716 79.8221C421.215 76.7679 425.574 72.4861 428.706 67.1315C431.828 61.7673 433.413 55.7555 433.413 49.2507C433.413 42.746 431.837 36.7341 428.706 31.3699Z" fill="white"></path><path d="M477.004 27.2526C479.256 24.9619 481.972 23.802 485.093 23.802C485.915 23.802 486.708 23.86 487.471 23.9953L488.109 24.1017V15.0646L487.732 14.9389C487.297 14.7843 486.727 14.678 485.983 14.62C485.258 14.5427 484.504 14.5137 483.711 14.5137C480.222 14.5137 477.081 15.2289 474.384 16.6497C471.688 18.0608 469.184 20.4482 466.932 23.7247C464.719 26.9723 462.457 31.4183 460.225 36.9372L450.956 59.3318C448.568 65.2179 446.113 69.3837 443.687 71.713C441.3 74.0037 438.217 75.1636 434.505 75.1636C433.104 75.1636 432.021 75.0669 431.277 74.8833L430.6 74.7093V83.8237L431.016 83.93C432.369 84.2683 434.003 84.4423 435.887 84.4423C439.763 84.4423 443.194 83.7077 446.084 82.2676C448.974 80.8178 451.632 78.4014 453.981 75.0959C456.291 71.8194 458.61 67.3153 460.843 61.7191L470.016 39.2376C472.335 33.6123 474.694 29.5722 476.994 27.2332" fill="white"></path></svg>